<svg xmlns="http://www.w3.org/2000/svg">
  <symbol id="arrow-right" viewBox="0 0 24 24">
    <path d="M5 12h14M13 6l6 6-6 6"/>
  </symbol>
  <symbol id="check" viewBox="0 0 24 24">
    <path d="m5 12 4 4L19 6"/>
  </symbol>
  <symbol id="chevron-down" viewBox="0 0 24 24">
    <path d="m6 9 6 6 6-6"/>
  </symbol>
  <symbol id="chevron-right" viewBox="0 0 24 24">
    <path d="m9 18 6-6-6-6"/>
  </symbol>
  <symbol id="clock" viewBox="0 0 24 24">
    <circle cx="12" cy="12" r="9"/><path d="M12 7v5l3 2"/>
  </symbol>
  <symbol id="close" viewBox="0 0 24 24">
    <path d="M6 6l12 12M18 6 6 18"/>
  </symbol>
  <symbol id="euro" viewBox="0 0 24 24">
    <path d="M18 7.5A7 7 0 1 0 18 16.5M4 10h10M4 14h9"/>
  </symbol>
  <symbol id="file-check" viewBox="0 0 24 24">
    <path d="M14 3H6a2 2 0 0 0-2 2v14a2 2 0 0 0 2 2h12a2 2 0 0 0 2-2V9z"/>
    <path d="M14 3v6h6m-12 6 2.5 2.5L16 12"/>
  </symbol>
  <symbol id="globe" viewBox="0 0 24 24">
    <circle cx="12" cy="12" r="9"/><path d="M3 12h18M12 3a14 14 0 0 1 0 18M12 3a14 14 0 0 0 0 18"/>
  </symbol>
  <symbol id="headset" viewBox="0 0 24 24">
    <path d="M4 14v-2a8 8 0 0 1 16 0v2"/>
    <path d="M4 14h3v6H6a2 2 0 0 1-2-2zm16 0h-3v6h1a2 2 0 0 0 2-2zM17 20c0 1-2 2-5 2"/>
  </symbol>
  <symbol id="luggage" viewBox="0 0 24 24">
    <path d="M7 7h10a2 2 0 0 1 2 2v10H5V9a2 2 0 0 1 2-2zM9 7V4h6v3M9 11v5m6-5v5M8 21h.01M16 21h.01"/>
  </symbol>
  <symbol id="menu" viewBox="0 0 24 24">
    <path d="M4 7h16M4 12h16M4 17h16"/>
  </symbol>
  <symbol id="plane" viewBox="0 0 24 24">
    <path d="M22 2 9 15l-6-2 2-2 4 1 4-4-8-3 2-2 10 1 2-2zM9 15l-1 6 2-2 2-5"/>
  </symbol>
  <symbol id="quote" viewBox="0 0 24 24">
    <path d="M9 11H5a4 4 0 0 1 4-4v10H5v-2m14-4h-4a4 4 0 0 1 4-4v10h-4v-2"/>
  </symbol>
  <symbol id="route" viewBox="0 0 24 24">
    <circle cx="6" cy="18" r="2"/><circle cx="18" cy="6" r="2"/>
    <path d="M8 18h3a3 3 0 0 0 3-3v-6a3 3 0 0 1 3-3"/>
  </symbol>
  <symbol id="search" viewBox="0 0 24 24">
    <circle cx="11" cy="11" r="7"/><path d="m20 20-4-4"/>
  </symbol>
  <symbol id="shield-check" viewBox="0 0 24 24">
    <path d="M12 3 5 6v5c0 5 3 8 7 10 4-2 7-5 7-10V6z"/><path d="m9 12 2 2 4-4"/>
  </symbol>
  <symbol id="upload" viewBox="0 0 24 24">
    <path d="M12 16V4m-5 5 5-5 5 5M5 20h14"/>
  </symbol>
</svg>
